<?xml version="1.0" standalone="no"?><!DOCTYPE svg PUBLIC "-//W3C//DTD SVG 1.1//EN" "http://www.w3.org/Graphics/SVG/1.1/DTD/svg11.dtd"><svg t="1563871636026" class="icon" viewBox="0 0 1024 1024" version="1.1" xmlns="http://www.w3.org/2000/svg" p-id="8217" xmlns:xlink="http://www.w3.org/1999/xlink" width="200" height="200"><defs><style type="text/css"></style></defs><path d="M337.408 512c0 23.04 4.608 45.568 13.312 67.072 8.704 20.992 21.504 40.448 37.888 56.832 16.384 16.384 35.328 29.184 56.832 37.888 20.992 8.704 44.032 13.312 67.072 13.312s45.568-4.608 67.072-13.312c20.992-8.704 40.448-21.504 56.832-37.888 16.384-16.384 29.184-35.328 37.888-56.832 8.704-20.992 13.312-44.032 13.312-67.072s-4.608-45.568-13.312-67.072c-8.704-20.992-21.504-40.448-37.888-56.832-16.384-16.384-35.328-29.184-56.832-37.888-20.992-8.704-44.032-13.312-67.072-13.312s-45.568 4.608-67.072 13.312c-20.992 8.704-40.448 21.504-56.832 37.888-16.384 16.384-29.184 35.328-37.888 56.832-8.704 21.504-13.312 44.032-13.312 67.072zM512 201.216c171.008 0 310.784 139.776 310.784 310.784 0 171.008-139.776 310.784-310.784 310.784-171.008 0-310.784-139.776-310.784-310.784 0-171.008 139.776-310.784 310.784-310.784m0-77.312c-213.504 0-388.096 174.592-388.096 388.096 0 213.504 174.592 388.096 388.096 388.096 213.504 0 388.096-174.592 388.096-388.096 0-213.504-174.592-388.096-388.096-388.096z" p-id="8218"></path></svg>