<?xml version="1.0" standalone="no"?><!DOCTYPE svg PUBLIC "-//W3C//DTD SVG 1.1//EN" "http://www.w3.org/Graphics/SVG/1.1/DTD/svg11.dtd"><svg t="1563871648179" class="icon" viewBox="0 0 1024 1024" version="1.1" xmlns="http://www.w3.org/2000/svg" p-id="8452" xmlns:xlink="http://www.w3.org/1999/xlink" width="200" height="200"><defs><style type="text/css"></style></defs><path d="M262.792195 358.772176l498.414587 0c22.469758 0 40.676421-18.212804 40.676421-40.676421s-18.206664-40.676421-40.676421-40.676421L262.792195 277.419334c-22.463618 0-40.676421 18.212804-40.676421 40.676421S240.328577 358.772176 262.792195 358.772176z" p-id="8453"></path><path d="M262.792195 738.403426l213.893508 0.013303c22.456455 0 40.676421-18.212804 40.676421-40.676421s-18.206664-40.676421-40.676421-40.676421l-213.893508-0.013303c-22.463618 0-40.676421 18.212804-40.676421 40.676421C222.115774 720.190623 240.322437 738.403426 262.792195 738.403426z" p-id="8454"></path><path d="M262.792195 548.594453l498.414587 0c22.469758 0 40.676421-18.212804 40.676421-40.676421s-18.206664-40.676421-40.676421-40.676421L262.792195 467.24161c-22.463618 0-40.676421 18.212804-40.676421 40.676421S240.328577 548.594453 262.792195 548.594453z" p-id="8455"></path><path d="M764.927523 78.118172 259.071454 78.118172c-107.251699 0-194.509019 87.25732-194.509019 194.509019l0 478.719013c0 107.265002 87.25732 194.535625 194.509019 194.535625l215.615733 0c22.469758 0 40.676421-18.206664 40.676421-40.676421 0-22.469758-18.206664-40.676421-40.676421-40.676421L259.071454 864.528985c-62.398142 0-113.157199-50.7785-113.157199-113.183805L145.914254 272.627191c0-62.398142 50.759057-113.157199 113.157199-113.157199l505.85607 0c62.390979 0 113.157199 50.759057 113.157199 113.157199l0 340.053859-79.525218 0c-97.188506 0-176.263469 79.074963-176.263469 176.269609l0 111.661126c0 9.688663 3.52529 18.464537 9.178033 25.449625 7.113001 11.828396 19.944238 19.820418 34.755572 19.820418l44.462654 0c33.208333 0 83.629699-34.029024 149.847843-101.160981 65.621557-66.508763 98.896404-116.175953 98.896404-147.616012l0-424.477644C959.437565 165.375491 872.179222 78.118172 764.927523 78.118172zM708.243523 864.530009l-4.594645 0 0-75.579349c0-52.334949 42.582841-94.91779 94.910627-94.91779l79.468936 0C864.123756 731.62607 743.378741 852.994278 708.243523 864.530009z" p-id="8456"></path></svg>